PathFileType	4	(X/Y/Z)	s06c0303.trc
DataRate	CameraRate	NumFrames	NumMarkers	Units	OrigDataRate	OrigDataStartFrame	OrigNumFrames
200	200	6	48	mm	200	1000	2000
Frame#	Time	racr			lacr			c7			jug			rlel			rdr			llel			ldr			s2			lic			ric			lasi			rasi			rpsi			lpsi			rgt			lgt			rth1			rth2			rth3			rth4			rlfc			rmfc			rsh1			rsh2			rsh3			rsh4			rlmal			rcal			rtoe			rmt5			lth1			lth2			lth4			lth3			llfc			lmfc			llmal			lcal			lmt5			lsh1			lsh2			lsh3			lsh4			ltoe			SBIKE			LBIKE			RBIKE			
		X1	Y1	Z1	X2	Y2	Z2	X3	Y3	Z3	X4	Y4	Z4	X5	Y5	Z5	X6	Y6	Z6	X7	Y7	Z7	X8	Y8	Z8	X9	Y9	Z9	X10	Y10	Z10	X11	Y11	Z11	X12	Y12	Z12	X13	Y13	Z13	X14	Y14	Z14	X15	Y15	Z15	X16	Y16	Z16	X17	Y17	Z17	X18	Y18	Z18	X19	Y19	Z19	X20	Y20	Z20	X21	Y21	Z21	X22	Y22	Z22	X23	Y23	Z23	X24	Y24	Z24	X25	Y25	Z25	X26	Y26	Z26	X27	Y27	Z27	X28	Y28	Z28	X29	Y29	Z29	X30	Y30	Z30	X31	Y31	Z31	X32	Y32	Z32	X33	Y33	Z33	X34	Y34	Z34	X35	Y35	Z35	X36	Y36	Z36	X37	Y37	Z37	X38	Y38	Z38	X39	Y39	Z39	X40	Y40	Z40	X41	Y41	Z41	X42	Y42	Z42	X43	Y43	Z43	X44	Y44	Z44	X45	Y45	Z45	X46	Y46	Z46	X47	Y47	Z47	X48	Y48	Z48	
1000	5.0000	738.510063	1204.123162	-73.270998	735.690709	1233.467250	-383.375498	754.502934	1290.968055	-233.638443	701.702970	1135.631510	-243.129071	563.342566	1048.033812	71.890741	707.661984	924.823149	-39.972947	566.516895	1060.611856	-515.001136	711.525589	917.542931	-419.017425	173.417456	1210.931208	-262.033526	337.187794	1145.539394	-401.496840	286.959819	1138.729334	-78.044802	336.347470	1085.942855	-364.606710	317.717745	1099.351565	-87.898706	208.436559	1237.724108	-222.773317	215.789837	1240.087019	-282.490941	223.015548	1073.101883	-57.849047	306.112932	1087.459173	-435.160236	268.593305	948.245783	-23.373635	313.714605	869.579943	-17.382452	314.723786	782.372394	-24.079824	349.147607	879.974855	-26.827645	332.257700	673.467376	-33.177359	343.830253	647.149360	-140.092258	304.195252	551.247614	-13.471470	309.616030	465.578581	-32.522525	273.090255	387.607717	-42.647098	337.822713	465.070762	-60.366597	250.361300	310.023032	-51.900688	188.510392	295.140544	-103.526412	451.516637	208.779327	-91.056364	349.995669	214.991722	-24.732699	354.163440	981.646176	-447.347571	417.860641	924.210588	-433.052125	444.270898	942.705089	-414.159358	446.771955	839.297138	-430.755096	450.704391	729.628406	-405.486954	443.673681	718.783225	-291.756379	128.754762	551.691849	-377.403499	71.459276	597.930179	-330.753579	121.255129	404.272453	-396.150638	364.170007	662.790587	-421.974891	301.794820	608.893096	-394.656650	215.862146	586.268690	-390.830313	317.423598	592.998981	-362.578284	164.705455	330.686309	-335.543776	-163.747053	859.196254	-227.774179	-53.095421	80.237667	-409.696985	-53.492550	79.925491	-12.328775	
1001	5.0050	740.340224	1206.708016	-76.243299	735.137566	1234.921520	-386.167357	754.772450	1292.492525	-236.808891	702.368524	1136.955301	-245.020997	567.820201	1051.354995	73.132556	708.718717	924.797996	-40.201374	565.237588	1059.761598	-515.928829	711.474901	917.447851	-419.149024	173.506454	1208.497580	-257.848427	336.378919	1146.777307	-400.687144	290.239654	1134.401077	-76.919540	336.599719	1087.433982	-364.286360	321.121452	1095.475786	-87.523973	208.660354	1235.001271	-218.185811	215.329844	1238.434871	-278.370572	225.456910	1068.215981	-57.131594	304.928902	1090.771871	-434.165326	268.346617	942.055864	-23.826866	310.976238	861.557824	-18.568214	308.838060	774.644585	-25.752937	346.486688	871.345670	-27.470292	324.612965	665.746721	-34.994604	334.349493	638.549196	-141.288699	297.193443	543.658823	-14.577140	303.030557	458.001993	-33.331352	267.022359	379.685991	-42.963827	331.237772	457.573893	-61.797833	244.873294	302.480262	-51.835793	183.033617	288.724888	-103.147469	444.862633	198.691343	-91.255927	343.551745	206.419807	-24.821340	355.071509	985.653775	-448.116292	420.301172	929.534594	-435.225480	446.890851	948.776145	-417.283901	451.144542	845.404784	-433.579113	458.129886	735.517221	-406.800881	452.399166	725.024321	-292.736347	135.224371	560.335825	-377.859690	77.348337	606.168413	-330.941923	128.348839	412.963109	-396.256891	371.956467	669.432522	-422.648946	308.800777	616.419434	-395.349389	222.820724	594.455101	-391.702480	324.390612	600.213588	-363.235610	172.399067	339.600271	-335.712367	-164.086361	859.431916	-228.102697	-53.075808	80.179235	-409.727670	-53.439178	79.881599	-12.354861	
1002	5.0100	742.018106	1209.717880	-79.080383	734.621294	1236.525299	-389.063239	755.180715	1293.979969	-239.932867	702.645122	1138.415772	-246.511955	572.223427	1054.985865	74.120780	709.849717	924.743257	-40.175125	564.232849	1058.781023	-516.901578	711.460003	917.168465	-418.905114	173.422383	1206.279516	-253.183686	335.474494	1147.912696	-399.837917	293.590819	1130.523671	-75.321380	336.675194	1088.942669	-363.866656	324.935006	1092.283015	-86.488542	209.221539	1232.043683	-213.472729	214.797644	1236.671566	-274.169122	228.456881	1063.203612	-56.148715	303.503882	1094.122718	-433.341027	267.697310	935.707529	-23.625222	308.049637	854.218267	-19.348356	303.279322	767.164370	-27.681790	343.714730	862.725025	-28.904334	316.741370	659.082551	-36.878594	324.277699	630.950937	-142.673638	290.295419	537.026365	-15.666643	296.405430	451.470557	-34.078212	260.668159	372.882931	-43.158923	324.224411	450.883959	-63.502227	239.143635	295.828905	-51.793613	177.219824	283.045910	-102.950527	437.824017	188.865050	-91.543680	336.669640	198.310925	-24.896698	355.078800	989.246525	-448.182077	422.212795	934.842422	-437.709207	448.902705	954.791117	-420.882306	454.897340	851.481976	-436.402904	465.338721	742.076614	-408.147993	460.587446	731.696343	-294.246049	141.878228	568.506996	-378.261720	83.344752	613.992920	-331.095574	136.408658	421.191929	-396.699894	379.690746	676.331510	-423.287951	316.155996	623.856607	-396.003384	229.997496	602.516705	-392.567292	331.563730	607.540316	-363.880294	180.606671	348.172434	-335.862144	-163.731391	859.175888	-227.873400	-53.039477	80.096546	-409.731793	-53.428327	79.854285	-12.375594	
1003	5.0150	743.581091	1213.154892	-81.952868	734.038187	1238.176444	-391.971529	755.771858	1295.424647	-243.086372	702.412504	1140.075841	-247.685274	576.560314	1058.898323	74.814865	710.996429	924.774516	-39.978065	563.658419	1058.022183	-518.071145	711.607216	917.316402	-419.070940	173.028264	1204.152171	-248.390178	334.472069	1149.208433	-398.981494	297.257255	1126.543910	-73.754783	336.679850	1090.011864	-363.602915	328.968896	1088.923864	-85.478251	209.710864	1229.937649	-209.836158	214.195083	1234.795390	-269.634172	231.833108	1058.201671	-55.046493	301.779143	1097.276112	-432.763966	267.636468	929.869493	-23.545363	305.045724	847.049074	-20.342094	298.083925	759.924157	-29.413225	340.917668	854.464372	-30.470582	308.557073	653.340234	-38.992684	314.127345	624.892595	-144.115395	283.423324	531.403785	-16.820448	289.812502	445.849639	-34.733837	254.239691	367.055193	-43.330791	316.945932	445.624880	-65.569710	233.351117	289.893139	-51.791018	171.463835	278.316293	-102.662827	430.430945	179.353070	-91.700512	329.510872	190.744582	-24.983536	354.595366	992.769200	-448.716626	423.595891	940.041160	-440.460809	450.401957	960.767737	-424.716933	458.179830	857.401866	-439.126980	472.531543	749.253121	-409.496404	469.267696	738.506070	-295.121944	148.713713	576.234405	-378.680199	89.540283	621.200136	-331.190271	144.544138	429.073758	-397.042316	387.434076	683.441315	-423.888722	323.623146	631.314659	-396.618798	237.319434	610.358480	-393.208687	338.876248	614.838112	-364.487128	189.394939	356.353279	-335.811754	-158.469920	853.258866	-217.063085	-52.989744	80.080581	-409.725081	-53.396351	79.830523	-12.372782	
1004	5.0200	745.100767	1217.089371	-84.872990	733.609947	1239.923230	-394.860887	756.448895	1296.936905	-246.232087	702.106591	1141.884560	-248.545453	580.779119	1062.747893	75.279069	712.091774	924.659016	-40.011854	563.380077	1057.295774	-519.232085	711.778571	917.508824	-419.307363	172.820538	1202.513533	-244.134740	333.175472	1150.702984	-397.989823	300.997056	1122.958519	-72.369445	336.612821	1091.436615	-363.001043	333.101429	1086.042187	-84.791039	210.022455	1227.785836	-205.377294	213.615727	1233.389698	-265.185149	235.481410	1053.247964	-53.854021	299.852027	1100.119221	-432.463410	267.025038	924.613454	-23.525969	302.275831	840.486296	-21.585829	292.414179	754.185080	-30.862393	338.663891	847.166087	-31.584890	300.451682	648.596985	-40.975664	304.238851	620.793195	-146.181768	276.329771	526.896516	-17.966287	283.560783	441.303318	-35.204770	247.789714	362.255822	-43.570550	309.543223	441.244511	-66.863408	227.500368	284.766332	-51.934063	165.516841	274.484273	-102.541480	422.650588	170.252275	-91.810759	321.972125	183.695635	-25.002151	353.762272	995.997179	-449.797265	424.548124	944.903079	-443.322793	451.255800	966.510828	-428.476647	461.048537	863.347955	-441.678678	479.472743	756.898295	-410.632005	477.571432	745.611667	-295.981790	155.691313	583.462381	-379.122075	95.713124	627.991729	-331.282258	152.844329	436.542076	-397.020617	395.125993	690.794552	-424.474388	331.057200	638.842927	-397.250707	244.689455	618.107844	-393.837758	346.271906	622.031651	-365.398601	198.687178	364.362473	-336.000726	-163.410033	859.021562	-227.598049	-52.956520	80.099868	-409.710885	-53.374725	79.864400	-12.348841	
1005	5.0250	746.435412	1221.131469	-88.038291	733.271930	1241.518996	-397.600487	757.146007	1298.694633	-249.341252	701.826859	1143.977196	-249.622719	584.978161	1066.548009	75.564407	713.140851	924.830737	-40.249298	563.629180	1057.415374	-521.069971	712.105796	917.974185	-419.595322	172.229576	1200.722739	-239.872500	331.781950	1152.203713	-397.041163	304.965169	1119.668354	-71.129625	336.450805	1093.265661	-362.323416	337.486831	1083.518374	-84.298566	210.412051	1225.547195	-200.605827	212.962626	1232.192673	-260.857675	239.424653	1048.397245	-52.716247	297.859588	1102.435135	-432.375199	266.560313	920.703088	-23.395934	299.087158	835.711931	-22.865118	286.695422	750.090143	-32.485069	336.097473	841.275631	-33.003615	292.208210	644.856375	-42.849483	294.391781	618.074693	-148.781816	268.889150	523.323371	-19.044552	276.557847	437.549641	-36.101672	241.283544	358.278301	-43.850241	302.171844	437.744908	-68.037080	221.496220	280.563161	-52.046371	159.648891	271.585781	-102.436448	414.488734	161.538377	-91.790207	314.090450	177.413138	-25.006415	352.430279	998.696997	-451.728298	424.982452	949.792418	-446.170546	451.172985	972.446299	-431.546965	463.923011	869.158126	-443.989124	486.458100	764.769697	-411.359302	485.392886	753.025397	-296.636326	162.724306	590.340125	-379.438746	101.875160	634.144346	-331.285579	161.621614	443.533944	-397.098040	402.519814	698.420063	-425.111060	338.535770	646.402762	-397.856000	252.141337	625.561946	-394.356553	353.760558	629.543067	-366.005759	208.415195	372.000327	-336.091840	-163.513070	859.022290	-227.554209	-52.943599	80.135660	-409.690079	-53.345625	79.860993	-12.342188	
